<svg xmlns="http://www.w3.org/2000/svg" width="217.42" height="256.22" viewBox="0 0 57.52 67.79"><defs><clipPath id="a" clipPathUnits="userSpaceOnUse"><path d="M0 500h500V0H0z"/></clipPath></defs><g clip-path="url(#a)" transform="matrix(.35278 0 0 -.35278 -18.13 115.48)"><path d="M89.9 193.04c-.26.1-.53.2-.78.33 1.32-4.83 2.72-9.62 4.14-14.43.13.06.27.12.41.2.4.19.76.44 1.14.64a66.86 66.86 0 00-3.52 12.92c-.47-.13-.92.15-1.39.34M100.05 192.19c-.74.27-1.47.57-2.15.96 1.01-3.88 2.67-7.34 4.04-11.1.59.14 1.25.11 1.86.09-1.78 2.94-2.63 6.69-3.19 10.09a.63.63 0 00-.56-.04" fill="#7d8b8e"/><path d="M101.16 181.26c-2.78 3.42-4.02 8.35-4.5 12.62-.05.46.53.62.84.4 1.01-.04 2-.31 2.96-.64.06-.02.1-.06.16-.1.19.15.49.13.57-.18 1.02-3.87 2.8-7.53 3.81-11.37a.45.45 0 00-.05-.37c.17-.47-.06-1.1-.71-1.1-.89.03-2.03-.1-2.83.36a.55.55 0 00-.25.38m-5.48-2.48a3.6 3.6 0 00-1.47-.91c-.47-.18-.94-.28-1.37-.08a.47.47 0 00-.47.27 45.1 45.1 0 00-4.42 16.33c-.03.38.4.51.66.37.05.02.11.03.18.03.59 0 1.14-.23 1.68-.43.32-.12.62-.2.87-.37.24.18.63.15.7-.23 1.06-4.9 2.51-9.6 4.05-14.36.12-.36-.12-.59-.4-.62m-8.4-2.25a3.72 3.72 0 00-1.57-1.14c-.53-.24-1.54-.72-2.02-.14-.04.05-.05.1-.07.14-.03.04-.07.07-.09.12-3.13 6.48-5.58 13.78-5.97 21 0 .13.06.23.14.3.05.04.1.08.16.1.56.22 1.28-.02 1.83-.2.65-.23 1.34-.49 1.94-.81.1-.05.17-.12.23-.2.08-.03.15-.1.19-.22 1.7-6.13 4.1-12.32 5.47-18.5.04-.2-.08-.38-.24-.45m-8.78-2.69v-.11c-.3-1.1-2.43-1.6-3.31-1a.57.57 0 00-.22.36.77.77 0 00-.24.2c-6.1 8.24-10.71 19.1-11.58 29.34-.02.27.22.39.44.34.33.4 1.39-.24 1.62-.38 1.06-.62 2.2-1.23 3.14-2.03.21-.18.26-.4.22-.6a135.64 135.64 0 0110.13-25.35.57.57 0 00-.2-.77m28.26 19.86c.04.09.1.17.19.23.35.26.85.2 1.26.13.46-.08.93-.15 1.37-.29.57-.18.66-.94.33-1.29.3-1.17.57-2.35.84-3.53.24-1.07.63-2.2.69-3.3 0 0 .02 0 .03-.02.5-.52.3-1.3-.06-1.84-.34-.53-1.02-1.25-1.72-1.18a.62.62 0 00-.51.34l-.02.02c-1.82 3.23-2.38 6.75-2.56 10.41 0 .14.07.25.16.32m23.62-7.81a12.8 12.8 0 00-5.76 7.56c-.72 2.4-.88 5.03-.57 7.63-14.45-1.6-29.97-.12-44.2 2.54-8.07 1.5-20.55 3.68-25.45 11.46 2.13-7.7 4.26-15.29 7.64-22.63 1.9-4.12 4.04-8.11 6.38-12 1.9-3.15 4.43-6.16 5.87-9.55 9.97-.67 20.12 1.89 29.65 4.68 9.16 2.68 17.54 7.11 26.44 10.3" fill="#b3c9ce"/><path d="M82.41 202.56c4-1.26 8.02-2.35 12.14-3.11 4.47-.83 9.18-1.77 13.74-1.69 1.91.03 5.12.53 6.2-1.58 3.03-6.02.23-12.21-4.31-16.47a33.64 33.64 0 00-4.63-3.62c8.54 2.7 16.47 6.8 24.84 9.8a12.8 12.8 0 00-5.76 7.56c-.72 2.4-.88 5.02-.57 7.63-14.45-1.6-29.97-.12-44.2 2.54l-1.16.21a65.1 65.1 0 013.71-1.27" fill="#748082"/><path d="M132.61 205.46c2.1 3.69 7.13 6 10.94 4.17 4.24-1.55 6.55-6.42 5.42-10.96-1.35-5.45-7.88-9.97-13.48-7.7-5.34 2.16-5.3 10.23-2.88 14.5m14.25-16.74c7.26 4.38 9.84 13.39 5.6 20.8-3.35 5.83-9.48 7.37-15.28 6.02-7.24-4.55-13.06-10.68-11.05-20.22 2.09-9.9 13.14-11.18 20.73-6.6" fill="#b3c9ce"/><path d="M143.81 190.13c-.39.07-.5.62-.23.88.7.66 1.35 1.4 1.93 2.17-2.73-2.41-6.55-3.62-10.02-2.21-4.29 1.73-5.1 7.27-4 11.6a12.23 12.23 0 01-2.9-4.95c-.16-.5-.87-.5-1.02 0-.7 2.37-.73 5.46-.1 8.45a15.48 15.48 0 01-1.34-10.74c2.09-9.9 13.14-11.18 20.73-6.6 1.22.74 2.3 1.61 3.24 2.58a10.18 10.18 0 00-6.29-1.18" fill="#748082"/><path d="M110.13 184.63c.13.2.25.42.4.61-.47 1.06-.6 2.28-.84 3.41-.27 1.24-.53 2.48-.77 3.72a10.99 10.99 0 00-1.3.31c.5-2.9 1.32-5.76 1.99-8.63.18.18.38.36.52.58M67.49 199.43c-.9.45-1.73 1.12-2.56 1.7-.2.14-.44.28-.67.45 3.11-9.74 6.54-18.64 11.67-27.6.03-.05.04-.1.05-.15.24.01.48.03.7.1.3.1.55.27.82.39a72.01 72.01 0 00-9.67 25.04.7.7 0 00-.34.07" fill="#7d8b8e"/><path d="M136.42 292.89c.3.18.8-.05.76-.44-.06-.7-.37-1.34-.54-2.02-.2-.82-.16-1.67.03-2.5.2-.8-.93-1.08-1.21-.33-.6 1.58-.7 4.28.96 5.29m1.82-.2c.26.45.88.2.92-.26.1-1.05-.41-2.28-.67-3.3-.17-.65-1.1-.36-1 .28.19 1.04.22 2.34.75 3.27m19.02 14.19c1.77 1.62 4.14 3.34 6.6 3.6.53.06.7-.73.26-.97-.97-.54-2.05-.88-3.03-1.43a15.52 15.52 0 01-2.92-2.11c-.6-.56-1.52.34-.9.9m9.76 2.35c.44-.03.64-.6.23-.84-.53-.32-1.16-.51-1.73-.76a9.18 9.18 0 01-1.72-.98c-.5-.36-1.13.46-.66.85 1.04.86 2.46 1.85 3.88 1.73m2.67-2.63c1 0 1-.64 0-.64zM133.02 288c.13-.36-.46-.6-.63-.26-2.06 4.23-3.5 9-3.3 13.7-7.42 1.21-3.28-12.02-2.38-14.57 1.27-3.61 2.8-7.21 4.48-10.66a.53.53 0 00.05-.32c2.68.05 5.71-.69 7.67-1.2.84-.2 1.98-.47 3.23-.83a.4.4 0 00.21.43 12.05 12.05 0 007.48 1.35c1.47-.2 2.86-.64 4.19-1.3.92-.45 1.73-1.05 2.62-1.54l1.99-.98 3.27 1.78c.03.2.11.35.22.47a24.05 24.05 0 01-5.96 8.27c-.3.28.09.76.43.56 5.75-3.3 8.17-9.66 9.4-15.89.29-1.44.15-5.66 1.09-6.73 4.4-4.98 3.9 1.31 3.82 2.77-.24 5.23-2.26 9.75-3.81 14.64-.17.53.54.72.83.35 1.9-2.5 6.76-14.24 4.7-19.43.78-4.88 2.94-19.3 7.4-16.96a31.13 31.13 0 00-1.36 10.75c.04.67.98.66 1.03 0 .23-3.46.65-6.73 1.82-10a26.45 26.45 0 012.08-4.54c.51-.94 1.13-1.82 1.85-2.63 2.08-2.55 4.27-1.88 6.57 2a8.95 8.95 0 00-2.44 2.42c-.38.55.42 1.05.87.67 5.05-4.26 11.22-4.01 16.04.53 2.76 2.6 4.15 5.86 5.3 9.27a11.6 11.6 0 00-7.55-3.7c-5-.32-9.31 2.85-11 7.37-1.44 1.07-2.85 2.9-3.56 3.81-.44.56.22 1.26.78.79 1.22-1.03 2.97-4.33 4.98-.98.57.94-1.44 5.63-1.78 6.69-1.39 4.4-3.23 8.64-4.78 12.99-.18.5.61.82.86.36a94.54 94.54 0 003.43-7.2c6.15-.95 3.92 7.16 3.3 9.45-.45 1.65-.92 3.3-1.44 4.92-1.15 3.6-2.73 6.92-4.23 10.34a23.01 23.01 0 00-7.03 4.46c-.49.47.17 1.37.73.95 2.01-1.52 12.87-8.35 10.63.3-.78 3-6.52 6.73-8.85 8.23-6.56 4.22-13.67 5.72-21.29 6.4a31.12 31.12 0 00-8.02-3.75c-.54-.15-.89.64-.39.9 3.22 1.69 8.9 3.68 10.77 7 2.21 1.59 1.92 3.68-.87 6.25a42.86 42.86 0 01-10.64-2.07c-9.33-3.09-17.3-10.04-16.21-20.67.05-.44-.68-.53-.77-.1a15.51 15.51 0 002.43 12.43c-11.63-4.64-12.3-16.43-8.26-27.29" fill="#ea4256"/><path d="M138.49 289.13c-.17-.65-1.1-.36-1 .28.19 1.04.22 2.34.75 3.27.26.46.88.21.92-.25.1-1.05-.41-2.28-.67-3.3m-1.81-1.2c.19-.8-.94-1.08-1.22-.33-.6 1.58-.7 4.28.96 5.29.3.18.8-.05.76-.44-.06-.7-.37-1.34-.54-2.02-.2-.82-.16-1.67.04-2.5m53.76-47.62c3.6-3.04 7.78-3.77 11.63-2.3a21.08 21.08 0 00-4.65.1c-9.9 1.38-16.22 11.09-17.24 20.48-.06.51.76.73.97.27.77-1.68 2.25-3.63 4.23-3.57-4.84 5.91-1.5 15.42-5.33 21.95-4.87 8.3-14.8 11.7-24.01 11.5-.45-.01-.71.58-.37.9.95.87 2 1.64 2.96 2.5-3.7.1-7.58-1.04-10.83-2.66-.4-.2-.9.12-.77.59.97 3.48 2.13 6.92 3.24 10.36-3.03-.61-5.05-2.91-7.03-5.2-.25-.3-.8-.15-.87.22-1.17 5.44-.74 11.7 1.57 16.8a51.55 51.55 0 004.03 7.52c-5.45-3.77-9.12-9.4-8.35-16.82.05-.44-.68-.53-.77-.1a15.52 15.52 0 002.43 12.43c-11.63-4.64-12.3-16.43-8.26-27.29.13-.36-.46-.6-.63-.26-2.06 4.23-3.5 9-3.3 13.7-7.42 1.21-3.28-12.02-2.38-14.57 1.27-3.61 2.8-7.21 4.48-10.66a.53.53 0 00.05-.32c2.69.05 5.71-.69 7.67-1.19.84-.21 1.98-.48 3.23-.84-.02.16.04.33.21.43a12.05 12.05 0 007.48 1.35c1.47-.2 2.86-.64 4.19-1.3.92-.45 1.73-1.05 2.62-1.54l1.99-.98 3.27 1.78c.03.2.11.35.22.47a24.05 24.05 0 01-5.96 8.27c-.31.28.09.76.43.56 5.75-3.3 8.17-9.66 9.4-15.89.29-1.44.15-5.66 1.09-6.73 4.4-4.98 3.89 1.31 3.82 2.77-.24 5.23-2.26 9.75-3.81 14.64-.17.53.54.72.83.35 1.9-2.49 6.76-14.24 4.7-19.43.78-4.88 2.94-19.3 7.4-16.96a31.13 31.13 0 00-1.36 10.75c.04.67.98.66 1.03 0 .23-3.46.65-6.73 1.82-10a26.53 26.53 0 012.08-4.54c.51-.94 1.13-1.82 1.85-2.63 2.08-2.55 4.27-1.88 6.57 2a8.95 8.95 0 00-2.44 2.42c-.38.55.42 1.05.87.67" fill="#a52d3e"/><path d="M123.31 150.59c-11.4-3.34-25.1-7.75-37.32-6.81.09-1.38-.37-2.8-.84-4.07a11.5 11.5 0 00-1.16-2.5c6.99.84 13.97 1.2 20.93 2.59 6.69 1.34 13.31 3.08 19.85 5.03a424.32 424.32 0 0120.4 6.76c5.66 2 11.2 4.26 17.24 3.77-.68 2.03-.89 4.36-1.23 6.4-12.77-3.25-25.23-7.47-37.87-11.17" fill="#b3c9ce"/><path d="M106.71 143.87c6.45 1.6 12.95 3.32 19.3 5.27 11.69 3.58 23.36 8.54 35.65 9.48-.18 1.07-.31 2.14-.48 3.14-12.77-3.25-25.23-7.47-37.87-11.17-11.4-3.34-25.1-7.75-37.32-6.81a8.15 8.15 0 00-.43-2.86c7.05.72 14.28 1.24 21.15 2.95" fill="#7d8b8e"/><path d="M136.3 205.08c1.67 2.09 5.1 3.07 7.43 1.69.09.1.23.13.35.03.36-.35.65-.74.9-1.16l.06-.07a.51.51 0 00.08-.18c2.94-5.57-3.14-16.1-8.84-10.04-2.48 2.64-2.16 7.03.01 9.73m.2-11.97c4.45-1.7 9.64 1.4 10.81 6.02.9 3.55-.48 6.54-2.98 8.53-3.78 1.57-7.92.71-10.09-3.14-2.03-3.63-2.1-9.74 2.25-11.4" fill="#748082"/><path d="M119.15 260.4c-.02-.22-.15-.46-.4-.51-1.53-.3-3.06-.6-4.6-.87-.7-.12-1.92-.58-2.65-.34-1.53.51-.81 3.56-.64 4.68.06.34.65.35.7 0 .1-.77.14-1.54.14-2.32 0-.5-.19-.97.23-1.3.36-.3.69-.11 1.12-.02 1.69.38 3.38.76 5.07 1.12l.19 2.06c.07.78.38 1.53-.5 1.75-1.55.38-3.1-.83-4.59-.9-.34 0-.48.42-.27.65 1.05 1.1 4.44 1.9 5.9 1.17.44-.22.61-.53.68-1 .2-1.25-.25-2.9-.38-4.17m-12.62-3.66c-1.65-.65-3.51-.7-5.2-1.38-2.05-.82-3.87-2-5.58-3.4-.28-.24-.82-.29-1 .12-1.06 2.36-1.68 4.64.52 6.47a23.71 23.71 0 0010.46 4.6c.32.04.57-.4.24-.56-1.98-.99-4.07-1.7-6.07-2.63-.9-.42-1.95-.82-2.76-1.4-2.08-1.5-2.35-3.2-1.58-5.14a20.72 20.72 0 006.18 3.39c1.51.51 3.52.46 4.6 1.66.98 1.1.5.62.5 2.15 0 .99-.13.58.23 1.5.16.41.77.36.8-.11.1-2.04 1.1-4.31-1.34-5.27m2.33 10.58c-13.63-4-22.68-13.84-27.98-26.58a125.8 125.8 0 0120.6-14.88c9.63-5.5 18.75-11.09 30.21-10.6.22.02.4-.06.53-.18 6.34 6.14 17.45 3.5 22.01-3.72 5.3-8.4 1.86-19.4-6.26-24.53-4.8-3.03-10.77-3.79-15.58-1.92a51.76 51.76 0 00-7.55-4.43c-3.9-4.38-9.88-7.54-14.91-10.17-4.5-2.36-9.6-4.94-14.71-6.2a52.58 52.58 0 0129.75 14.04c.32.3.76-.16.47-.47-8.56-9.14-20.98-14.65-33.54-14.51-.45-6.3-2.18-13.18-6.02-17.25 6.1.88 12.27 1.09 18.36 2.29 6.85 1.35 13.59 3.17 20.28 5.16 12.97 3.85 25.8 8.32 39.11 10.9-4.67 3.98-8.66 11.11-8.58 17.2-.2.2-.25.52.02.78a.4.4 0 00.32.31c10.31 9.9 18.34 23.95 19.3 38.36 1.05 15.8-6.05 29.98-19.4 38.47-13.45 8.57-30.9 12.49-46.43 7.93" fill="#b3c9ce"/><path d="M131.7 215.27c.21 0 .38-.07.52-.19.55.54 1.16.99 1.78 1.4-6.67 1.37-12.37 5.35-18.25 8.82-6.81 4.01-13.58 8.18-18.54 14.47-3.44 4.35-6.02 10.86-6.02 16.96a50.32 50.32 0 01-10.31-16 125.8 125.8 0 0120.6-14.87c9.63-5.5 18.75-11.09 30.21-10.6M161.8 166.03c-4.18.2-8.48-1.7-12.53-2.92-4.55-1.36-10.32-3.27-15.14-2.42-1.04.18-1.91.5-2.07 1.64-.12.85.26 2-.86 2.48-.95.41-1.98.18-2.92-.1-1.35-.38-5.66-2.17-6.35.26-.58 2.03 2.43 3.87 3.78 4.82 1.26.9 2.61 1.69 3.85 2.62 1.68 1.27 3 3.04 4.63 4.39 1.96 1.6 4.36 2.25 6.56 3.4a21.96 21.96 0 016.37 4.89c.76.86 1.51 1.76 2.23 2.7-.44-.34-.9-.66-1.38-.96-4.79-3.03-10.77-3.79-15.58-1.92a51.8 51.8 0 00-7.55-4.43c-3.9-4.38-9.88-7.54-14.91-10.17-4.5-2.36-9.59-4.94-14.71-6.2a52.58 52.58 0 0129.75 14.04c.32.29.76-.16.47-.47-8.56-9.14-20.98-14.64-33.54-14.51-.45-6.3-2.18-13.18-6.02-17.25 6.1.88 12.27 1.09 18.36 2.29a222.1 222.1 0 0120.28 5.16c12.97 3.85 25.8 8.32 39.11 10.9-.62.53-1.23 1.12-1.82 1.76" fill="#748082"/><path d="M106.88 261.61c-.23.46-.61.77-1.08.9-1.92-.94-3.95-1.64-5.9-2.55-.9-.42-1.95-.82-2.76-1.4-2.08-1.5-2.35-3.2-1.58-5.14a20.76 20.76 0 006.17 3.39c1.52.5 3.53.46 4.6 1.66 1 1.1.5.62.51 2.15 0 .72-.07.7.04 1M117.81 264.65c-1.55.38-3.1-.83-4.59-.9-.34 0-.48.42-.27.65a2.67 2.67 0 01-1.37-1.27c.09-.7.12-1.39.12-2.09 0-.5-.19-.97.23-1.3.36-.3.69-.11 1.12-.02 1.69.38 3.38.76 5.07 1.12l.19 2.06c.07.78.38 1.53-.5 1.75M167.14 224.08a5.5 5.5 0 01.34-2.43c.58-1.38 2.38-2.29 3.25-.65.59 1.1 1.06 5.65-1.11 5.4l-.03-.02c-1.21-.32-2.37-.86-2.45-2.3M163.88 236.06c.44-1.61.56-3.4 1.1-4.96.67-2.02 3.75.2 3.67 1.67a8.62 8.62 0 01-.2 1.68c-.19.98-.38 1.96-.62 2.93a38.07 38.07 0 01-2.22 6.89c-1.5 3.26-4.33 7.92-7.95 9.31-2.56-.65-2.49-2.65-.82-4.24.55-.52 1.04-1.08 1.5-1.68a29.69 29.69 0 003.22-5.42c.92-2 1.74-4.06 2.32-6.18" fill="#fff"/><path d="M126.7 271.54a63.46 63.46 0 0021.17-5.08c2.22 4.68-8 6.31-10.19 6.83-3.6.85-8.88 2.2-10.99-1.75M97.85 205.96c1.27 1.41 2.75 2.63 4 4.08 1.3 1.51 2.47 3.13 3.58 4.78-.15 0-.31.05-.4.16l-1.06 1.17-.3.33c-1.65-3.9-4.8-7.43-7.98-10.21l.97-.17c.37-.06.82-.02 1.19-.14M71.85 212.5c.67-.23 1.39-.45 1.94-.9 1.8 2.42 3.94 4.6 5.86 6.92 2.1 2.54 3.9 5.45 6.2 7.82-.34.45-.66.9-.9 1.41-3.61-5.62-8.86-10.64-13.94-14.95l.84-.3M62.76 218.48c.15-.06.28-.14.4-.23 2.31 2.68 5.7 4.63 8.3 7.06a85.42 85.42 0 017.21 7.74c-.34.3-.6.7-.89 1.04-.24.3-.46.6-.6.96-4.66-5.75-10.6-11.26-16.2-16.14.24-.04.47-.1.7-.15.37-.08.73-.15 1.08-.28M109.42 205.12c.89 1.12 1.97 2.1 2.87 3.2.93 1.13 1.69 2.45 2.67 3.54-.48.1-.83.5-1.22.76l-.43.27c-1.82-2.7-3.84-5.45-6.28-7.65l.65-.07c.58-.05 1.17.03 1.74-.05" fill="#7d8b8e"/><path d="M59.48 219.24c5.27 5.72 11.25 11.83 17.46 16.52.11.09.22.08.3.03h.09c.53-.17.94-.55 1.32-.97.35-.38.75-.75.98-1.22.25-.13.43-.44.23-.7a70.32 70.32 0 00-7.93-8.84c-2.4-2.26-5.28-5.23-8.42-6.45-.04-.1-.11-.18-.21-.2-.4-.09-.65-.14-1.06-.07-.3.05-.6.14-.89.22-.53.14-1.07.25-1.45.64-.46.03-.83.6-.42 1.04m25.3 9.56c.24.23.6.03.62-.24a8.25 8.25 0 001.65-1.7c.4-.5.04-1.02-.41-1.07-1.36-2.86-3.62-5.43-5.63-7.85-2.11-2.55-4.35-5.23-7.03-7.21-.14-.1-.3-.06-.42.05-.76 0-1.48.3-2.2.56-.74.28-1.59.5-2.05 1.19-.07.1-.04.24.05.32 0 .14.06.29.2.42 5.35 4.94 10.02 10.47 15.22 15.53m9.45-6.44c.07.07.14.1.21.1l.07.05c.53.19 1.23-.14 1.68-.42.56-.35 1.1-.81 1.54-1.3.1-.13.14-.25.17-.38.1-.1.16-.26.08-.44-1.17-2.53-3.22-4.68-5.13-6.68-1.84-1.94-3.94-4.34-6.44-5.4h-.02a.43.43 0 00-.22-.17c-.57-.2-1.19.24-1.72.46-.61.26-1.27.45-1.7 1-.1.11-.1.24-.02.34a.43.43 0 00.1.48c1.99 2 4.01 3.93 5.9 6.02 1.86 2.06 3.5 4.43 5.5 6.34m9.1-5.03c.03.17.17.28.34.3h.14c.44-.06.74-.44 1.04-.75l1.02-1.05c.12-.12.2-.31.17-.49a.45.45 0 00.37-.65c-1.64-3.6-4.53-7.67-8.03-9.68a.54.54 0 00-.24-.07c-.46-.36-1.13-.21-1.7-.09-.63.13-1.12.37-1.58.74-.63-.3-1.37.48-.8 1.04 3.44 3.34 6.13 7.13 9.27 10.7m9.85-3.38c.44.13.95-.13 1.3-.36.45-.28.9-.68.97-1.22.26.19.64-.04.56-.38-.4-1.56-1.5-2.93-2.48-4.19-1.04-1.35-2.19-2.87-3.62-3.83a.47.47 0 00-.29-.07c-1-.36-2.73-.25-3.61.5-.5-.27-1.02.31-.63.8 2.34 3 5.09 5.7 7.52 8.61.08.1.18.14.28.14m-27.98-8.92c13.09-2.34 25.82-2.55 39.03-2.8.73 4.17 2.7 8.2 5.7 11.04-9.97-1.3-19.77 5.23-28.05 9.92-7.8 4.42-16.46 9.52-22.34 16.6a.69.69 0 00-.26.3c-.51.64-1.01 1.29-1.48 1.95-3.16-4.38-7.98-7.92-11.95-11.5-3.95-3.58-7.78-7.54-12.1-10.7 7.18-10.7 19.48-12.66 31.45-14.8" fill="#b3c9ce"/><path d="M124.73 213.26c-1.37-3.29-3.66-6.52-7.08-7.46a46.6 46.6 0 00-7.1-1.32c-.21-.17-.42-.36-.64-.5a.47.47 0 00-.29-.08 4.46 4.46 0 00-3.25.25c-3.16-.16-6.32-.13-9.39-.01-3.16.11-6.34.27-9.51.53 12.3-1.98 24.32-2.2 36.76-2.45.73 4.18 2.7 8.2 5.7 11.05-1.75-.23-3.48-.2-5.2 0" fill="#748082"/><path d="M84.87 209.17c.4-.15.92-.26 1.27-.53 1.5 2 3.69 3.56 5.43 5.35 1.79 1.83 3.34 3.92 5.16 5.71l-.05.04c-.43.44-.86.85-1.33 1.26-.22.19-.49.4-.7.66-2.51-4.52-6.94-8.76-10.87-12.09.37-.1.73-.26 1.1-.4" fill="#7d8b8e"/><path d="M137.63 195.82c3.16-2.36 5.96.86 6.87 3.7a8.13 8.13 0 01-.02 5.27.5.5 0 00-.17.05c-2.65 1.4-5.64 1.77-7.56-1.06-1.64-2.4-1.59-6.11.88-7.96" fill="#b3c9ce"/><path d="M81 194.37a12.42 12.42 0 00-2.39 1.08c1.6-6.56 3.22-12.75 5.95-19l.16.06c.57.27 1.15.73 1.77.95-2.46 5.13-3.88 11.36-4.95 16.95a.72.72 0 00-.54-.04" fill="#7d8b8e"/><path d="M206.48 240.84c-4.82-4.54-11-4.79-16.04-.53-.45.38-1.25-.12-.87-.67.67-1 1.5-1.8 2.44-2.42-2.3-3.88-4.49-4.55-6.57-2-.72.81-1.34 1.69-1.85 2.63a26.53 26.53 0 00-2.08 4.54c-1.17 3.27-1.59 6.54-1.82 10-.05.66-.99.67-1.03 0-.2-3.03.2-7.05 1.36-10.75-4.46-2.33-6.62 12.08-7.4 16.96 2.06 5.2-2.8 16.94-4.7 19.43-.29.37-1 .18-.83-.35 1.55-4.9 3.57-9.4 3.81-14.64.07-1.46.58-7.75-3.82-2.77-.94 1.07-.8 5.3-1.09 6.73-1.23 6.23-3.65 12.59-9.4 15.9-.34.19-.74-.29-.43-.57a24.06 24.06 0 005.96-8.27.88.88 0 01-.22-.47l-3.27-1.78-1.99.98c-.89.5-1.7 1.09-2.62 1.54-1.33.66-2.73 1.1-4.2 1.3-2.62.36-5.14-.1-7.47-1.35a.41.41 0 01-.21-.43c-1.25.36-2.4.63-3.23.84-1.96.5-4.99 1.24-7.67 1.19.01.1 0 .2-.05.32-1.68 3.45-3.2 7.05-4.48 10.66-.9 2.55-5.04 15.78 2.38 14.58-.2-4.71 1.24-9.48 3.3-13.71.17-.35.76-.1.63.26-4.04 10.86-3.37 22.65 8.26 27.29a15.52 15.52 0 01-2.43-12.44c.1-.42.82-.33.77.1-1.1 10.64 6.88 17.6 16.2 20.68a42.86 42.86 0 0010.65 2.07c2.79-2.57 3.08-4.66.87-6.26-1.87-3.3-7.55-5.3-10.76-6.99-.5-.26-.16-1.05.38-.9 2.15.59 5.24 1.94 8.03 3.74 7.62-.67 14.72-2.17 21.28-6.39 2.33-1.5 8.07-5.23 8.85-8.22 2.24-8.66-8.62-1.83-10.63-.31-.56.42-1.22-.48-.74-.95 1.41-1.36 4.22-3.4 7.04-4.46 1.5-3.42 3.08-6.75 4.23-10.34.52-1.63 1-3.27 1.44-4.92.62-2.3 2.85-10.4-3.3-9.45a94.55 94.55 0 01-3.43 7.2c-.25.46-1.04.14-.86-.36 1.55-4.35 3.39-8.59 4.78-13 .34-1.05 2.35-5.74 1.78-6.68-2.01-3.35-3.76-.05-4.98.98-.56.47-1.23-.23-.78-.79.71-.9 2.12-2.74 3.56-3.81 1.69-4.52 6-7.7 11-7.38a11.6 11.6 0 017.56 3.7c-1.16-3.4-2.55-6.65-5.3-9.26m-58.62 25.62a63.46 63.46 0 01-21.18 5.08c2.11 3.95 7.39 2.6 10.99 1.75 2.18-.52 12.4-2.15 10.19-6.83m7.42-7.07c13.35-8.5 20.45-22.68 19.4-38.47-.96-14.41-8.99-28.46-19.3-38.36a.4.4 0 01-.31-.3v-.01c-.28-.26-.22-.58-.04-.79-.07-6.08 3.92-13.21 8.59-17.19-13.3-2.58-26.14-7.05-39.11-10.9a222.58 222.58 0 00-20.28-5.16c-6.09-1.2-12.27-1.41-18.36-2.3 3.84 4.08 5.57 10.95 6.02 17.26 12.56-.14 24.98 5.37 33.54 14.51.3.31-.15.76-.47.47a52.58 52.58 0 00-29.75-14.04c5.12 1.26 10.2 3.84 14.7 6.2 5.04 2.63 11.01 5.79 14.92 10.17a51.76 51.76 0 017.55 4.43c4.8-1.87 10.79-1.11 15.58 1.92 8.12 5.13 11.56 16.12 6.26 24.53-4.56 7.23-15.67 9.86-22.01 3.72-.14.12-.3.2-.53.19-11.46-.5-20.58 5.09-30.2 10.59a125.8 125.8 0 00-20.61 14.88c5.3 12.74 14.35 22.59 27.98 26.58 15.54 4.56 32.98.64 46.43-7.93m7.12-104.03c-6.04.49-11.58-1.76-17.24-3.77-6.75-2.4-13.53-4.7-20.4-6.76a220.85 220.85 0 00-19.85-5.03c-6.96-1.4-13.94-1.75-20.93-2.58.5.75.84 1.64 1.16 2.49.47 1.27.93 2.7.84 4.07 12.23-.94 25.91 3.47 37.32 6.8 12.64 3.71 25.1 7.93 37.87 11.18.34-2.04.55-4.37 1.23-6.4M74.3 170.9c-1.44 3.4-3.97 6.4-5.87 9.56a122.85 122.85 0 00-6.38 11.99c-3.38 7.34-5.5 14.93-7.64 22.63 4.9-7.78 17.38-9.96 25.46-11.46 14.22-2.66 29.74-4.14 44.19-2.54-.31-2.6-.15-5.23.57-7.63 1.05-3.53 3.15-6 5.76-7.56-8.9-3.2-17.28-7.63-26.44-10.31-9.53-2.8-19.68-5.35-29.65-4.68m62.88 44.65c5.8 1.35 11.93-.19 15.27-6.01 4.25-7.42 1.67-16.43-5.6-20.8-7.58-4.59-18.63-3.3-20.72 6.6-2.01 9.53 3.81 15.66 11.05 20.21m-71.33 14.98c3.97 3.6 8.79 7.13 11.95 11.51.47-.66.97-1.3 1.48-1.94a.69.69 0 01.26-.32c5.88-7.07 14.55-12.17 22.34-16.6 8.28-4.68 18.08-11.22 28.04-9.91a20.16 20.16 0 01-5.69-11.05c-13.2.26-25.94.47-39.03 2.81-11.97 2.15-24.27 4.1-31.44 14.81 4.3 3.16 8.14 7.12 12.09 10.69m148.2 25.07c-.2.19-.58.18-.74-.08-2.22-3.83-4.74-7.26-9.65-7.42-3.71-.12-6.9 1.96-8.89 4.9 1.04-.22 1.97.34 2.5 2.43.74 2.99-1.21 7.24-2.18 9.95-.48 1.34-1 2.66-1.55 3.97 3.9-1.4 6.06 3.02 5.74 6.84-.48 5.7-3.14 13.12-6.71 18.23 1.56-.34 3.03-.25 4.17.54 2.74 1.89.4 5.94-.97 7.85-6.2 8.67-18.41 14.07-29.13 13.63 2.3 1.75 4.18 3.8 4.77 5.95 1.56 5.73-5.07 5.2-8.74 4.64-7.1-1.07-15.4-4.54-20.2-10.21a.62.62 0 01-.5.18c-5.3-.26-9.58-4.66-11.53-9.35a17.89 17.89 0 01-1.25-4.91c-3.6 1.6-6.52-2.4-6.69-6.04-.34-7.38 3.79-14.93 7.68-20.89-2.44-.26-4.4-1.36-4.66-4.21-7.84.33-15.57-.86-22.38-3.77-10.7-4.57-21.14-14.08-23.64-25.87l-1.16 1.02c-.05.28-.41.49-.7.34-4.74-2.52-8.72-6.96-12.7-10.53-4.45-4-9.47-7.85-13.34-12.42a.93.93 0 01-.09-1.03v-.05c.78-9.17 3.88-18.24 7.56-26.62 1.93-4.41 4.14-8.7 6.65-12.81 2.18-3.6 4.56-7.88 8.01-10.37.12-.09.25-.1.37-.08 3.6-1.8 7.58-1.03 11.48-.42 1.54.24 3.08.52 4.62.8-.77-4.18-.89-8.48-1.92-12.63-1.08-4.33-3.42-7.84-5.07-11.88-.3-.42-.16-1.17.42-1.25l.93-.1c-.56-1.07-.86-2.31-1.3-3.42-.48-1.17-1.17-2.33-1.31-3.6-.73-.3-.68-1.41.26-1.5 12.65-1.17 26.6 2.6 38.61 6.17 6.58 1.95 13.05 4.22 19.53 6.48 7.13 2.49 15.05 6.65 22.77 5.28.13-.03.25-.02.36 0 .56-.32 1.42.02 1.4.78-.08 2.67-1.53 5.45-2.53 7.93l2.91.72c.43.1.63.4.65.72.3.36.4.96.06 1.38-2.32 2.8-4.73 5.3-6.48 8.56-1.4 2.6-2.23 5.43-3.38 8.13 9.27 8.43 16.6 18.04 19.7 30.4 2.92 11.55 1.62 24.37-4.46 34.72-4.89 8.3-12.77 14.78-21.9 19.05 2.34 4.22-2.2 6.5-6.32 7.82 2.86.75 5.74 1.06 8.6 0 2.5-.91 4.35-3.17 7.01-3.63 1.82-.31 3.54.3 4.34 1.7a44.3 44.3 0 001.76-7.56c.37-2.48.72-8.67 4.97-7.86.66.13 1.2.39 1.64.75.06-4.53 1.62-9.54 3.37-13.37.98-2.15 3.44-4.86 5.52-2.88 1.3-3.64 3.36-6.87 6.4-8.37 3.2-1.58 7.98.7 7.52 3.76 3.24-1.12 7.1-.7 10.12.98 6.28 3.48 9.63 11.14 10.08 18.05.02.3-.19.46-.42.48"/><path d="M147.3 199.13c-1.17-4.62-6.36-7.73-10.82-6.02-4.35 1.67-4.28 7.78-2.25 11.4 2.17 3.86 6.31 4.72 10.1 3.15 2.49-2 3.87-4.98 2.97-8.53m-3.75 10.5c-3.8 1.82-8.84-.48-10.94-4.17-2.42-4.26-2.46-12.33 2.88-14.5 5.6-2.26 12.13 2.26 13.48 7.71 1.13 4.53-1.18 9.4-5.42 10.96"/><path d="M144.5 199.53c-.91-2.85-3.71-6.07-6.87-3.7-2.47 1.84-2.52 5.54-.88 7.95 1.92 2.83 4.9 2.47 7.56 1.06a.5.5 0 01.17-.05c.58-1.69.6-3.41.02-5.26m.62 5.86a.51.51 0 01-.08.18l-.06.07c-.25.42-.54.81-.9 1.16-.12.1-.26.06-.35-.03-2.32 1.38-5.76.4-7.44-1.69-2.17-2.7-2.49-7.09 0-9.73 5.69-6.06 11.77 4.47 8.83 10.04M71.47 225.3c-2.61-2.42-6-4.37-8.31-7.05-.12.09-.25.17-.4.23-.35.13-.7.2-1.08.28l-.7.15c5.6 4.88 11.54 10.39 16.2 16.14.14-.35.36-.66.6-.96.28-.33.55-.75.9-1.04a85.42 85.42 0 00-7.21-7.74m8.16 8.3c-.23.46-.64.83-.98 1.21-.38.42-.79.8-1.33.97h-.08c-.09.05-.19.06-.3-.03-6.21-4.69-12.19-10.8-17.46-16.52-.4-.45-.04-1.01.42-1.04.38-.4.92-.5 1.45-.64.3-.08.59-.17.89-.22.41-.07.66-.02 1.06.07.1.02.17.1.21.2 3.14 1.22 6.03 4.19 8.42 6.45a70.23 70.23 0 017.93 8.84c.2.26.02.57-.23.7M79.65 218.52c-1.92-2.32-4.07-4.5-5.86-6.91-.55.44-1.27.66-1.94.9l-.84.3c5.08 4.3 10.33 9.32 13.94 14.94.24-.5.56-.96.9-1.41-2.3-2.37-4.1-5.28-6.2-7.82m7.4 8.34c-.5.63-.98 1.23-1.65 1.7-.02.27-.38.47-.62.24-5.2-5.06-9.87-10.59-15.22-15.53a.58.58 0 01-.2-.42c-.09-.08-.12-.21-.05-.32.46-.68 1.31-.9 2.05-1.19.72-.27 1.44-.56 2.2-.56.12-.1.28-.16.42-.05 2.68 1.98 4.92 4.66 7.03 7.2 2.01 2.43 4.27 5 5.63 7.86.45.05.82.56.41 1.07M91.57 213.99c-1.74-1.79-3.93-3.35-5.43-5.35-.35.27-.87.38-1.27.53-.36.14-.72.3-1.09.4 3.93 3.33 8.35 7.57 10.87 12.09.21-.25.48-.47.7-.66.47-.4.9-.82 1.33-1.26l.05-.04c-1.82-1.8-3.37-3.88-5.16-5.71m6.33 6.42a.72.72 0 01-.17.37c-.43.5-.98.97-1.54 1.3-.45.29-1.15.62-1.68.43-.03 0-.04-.03-.07-.05a.35.35 0 01-.2-.1c-2-1.91-3.65-4.28-5.51-6.34-1.89-2.09-3.91-4.02-5.9-6.02a.43.43 0 01-.1-.48c-.07-.1-.08-.23.02-.35.43-.54 1.09-.73 1.7-.99.53-.22 1.15-.66 1.72-.46.1.03.17.1.22.16h.02c2.5 1.07 4.6 3.47 6.44 5.41 1.91 2 3.96 4.16 5.13 6.68.08.18.03.34-.08.44M101.86 210.04c-1.26-1.45-2.74-2.67-4.01-4.08-.37.12-.82.08-1.18.14l-.98.17c3.19 2.78 6.33 6.31 7.99 10.21l.29-.33 1.05-1.17c.1-.11.26-.15.41-.16a49.75 49.75 0 00-3.57-4.78m4.18 5.3a.62.62 0 01-.17.5l-1.02 1.04c-.3.3-.6.7-1.04.75h-.14c-.17-.02-.31-.13-.34-.3-3.14-3.57-5.83-7.36-9.26-10.7-.58-.56.16-1.34.79-1.04.46-.37.95-.6 1.58-.74.57-.12 1.24-.27 1.7.1.08 0 .16.02.24.06 3.5 2 6.39 6.08 8.03 9.68.16.34-.09.63-.37.65M112.3 208.32c-.91-1.1-1.99-2.08-2.88-3.2-.58.08-1.16 0-1.74.05l-.65.07c2.44 2.2 4.46 4.95 6.28 7.65l.42-.27c.4-.26.75-.67 1.23-.76-.98-1.09-1.74-2.41-2.67-3.54m3.16 4.05c-.08.54-.52.94-.96 1.22-.37.23-.88.5-1.31.36-.1 0-.2-.04-.28-.14-2.43-2.92-5.18-5.61-7.52-8.6-.39-.5.13-1.08.63-.81.88-.75 2.6-.86 3.61-.5.1 0 .2.01.29.07 1.43.96 2.58 2.48 3.62 3.83.97 1.26 2.07 2.63 2.48 4.2.08.33-.3.56-.56.37M75.98 173.83c-.02.05-.02.1-.05.16-5.13 8.95-8.56 17.85-11.67 27.59.23-.17.48-.31.67-.44.83-.59 1.65-1.26 2.56-1.71a.7.7 0 01.34-.07 72.03 72.03 0 019.67-25.04c-.27-.12-.51-.3-.81-.39-.23-.07-.47-.09-.7-.1m2.72.78a135.57 135.57 0 00-10.13 25.36c.04.2 0 .4-.22.59-.94.8-2.08 1.41-3.14 2.03-.23.14-1.3.78-1.62.38-.22.05-.46-.07-.44-.34.87-10.25 5.49-21.1 11.58-29.34.07-.09.15-.16.24-.2.03-.14.1-.27.22-.35.88-.61 3.01-.1 3.31.99v.11c.23.16.36.45.2.77M84.72 176.51c-.05-.01-.1-.04-.16-.07-2.74 6.26-4.36 12.45-5.95 19.01l.34-.2c.64-.33 1.36-.66 2.05-.88.2-.06.38-.04.54.04 1.07-5.59 2.5-11.82 4.95-16.95-.62-.22-1.2-.68-1.77-.95m2.8.46c-1.36 6.2-3.75 12.38-5.46 18.51a.33.33 0 01-.19.23.76.76 0 01-.23.19c-.6.32-1.3.58-1.94.8-.55.19-1.27.43-1.83.21a.54.54 0 01-.16-.1.33.33 0 01-.14-.3c.39-7.22 2.84-14.52 5.97-21 .02-.05.06-.08.09-.12.02-.05.03-.1.07-.14.48-.58 1.49-.1 2.02.14.54.24 1.22.61 1.57 1.14a.4.4 0 01.24.44M93.67 179.13l-.41-.2c-1.42 4.82-2.82 9.6-4.14 14.44.25-.12.52-.23.78-.33.47-.2.92-.47 1.4-.34.77-4.39 1.87-8.77 3.51-12.92-.38-.2-.74-.45-1.14-.65m2.42.27c-1.54 4.76-2.99 9.47-4.04 14.36-.08.38-.47.41-.7.23-.26.16-.56.25-.88.37-.54.2-1.1.44-1.69.43a.53.53 0 01-.17-.03c-.27.14-.69 0-.66-.37a45.13 45.13 0 014.42-16.33c.1-.2.29-.28.47-.27.43-.2.9-.1 1.37.08.55.2 1.08.47 1.47.9.28.04.53.27.41.63M101.94 182.05c-1.37 3.76-3.03 7.22-4.04 11.1.68-.4 1.4-.7 2.15-.96.22-.08.41-.05.56.04.56-3.4 1.4-7.15 3.19-10.1-.61.03-1.27.06-1.86-.08m3.06-.06c-1.02 3.84-2.8 7.5-3.81 11.37-.08.3-.38.33-.57.19l-.16.1c-.96.32-1.95.59-2.96.63-.31.22-.89.06-.84-.4.48-4.27 1.72-9.2 4.5-12.62.03-.15.1-.3.25-.38.8-.45 1.94-.33 2.83-.35.65-.02.88.62.71 1.09.06.1.09.22.05.37M109.6 184.05c-.66 2.87-1.47 5.72-1.98 8.63l.3-.09c.33-.09.67-.16 1-.22.24-1.24.5-2.48.77-3.72.24-1.13.37-2.35.84-3.4-.15-.2-.27-.42-.4-.62-.14-.22-.33-.4-.52-.58m1.87 1.58l-.03.02c-.06 1.1-.45 2.23-.7 3.3a193 193 0 01-.83 3.53c.33.35.24 1.11-.33 1.3-.44.13-.91.2-1.37.28-.4.07-.91.13-1.26-.13a.6.6 0 01-.19-.23.37.37 0 01-.16-.32c.18-3.66.74-7.18 2.56-10.41l.02-.02a.62.62 0 01.51-.34c.7-.07 1.38.65 1.72 1.18.36.54.55 1.32.06 1.84M119.53 264.58c-.07.46-.24.77-.68.99-1.46.73-4.85-.07-5.9-1.17-.21-.23-.07-.66.27-.64 1.5.06 3.04 1.27 4.59.89.88-.22.57-.97.5-1.75l-.19-2.06c-1.7-.36-3.38-.74-5.07-1.12-.43-.1-.76-.28-1.12.02-.42.33-.23.8-.23 1.3 0 .78-.03 1.55-.14 2.32-.05.35-.64.34-.7 0-.17-1.12-.9-4.17.64-4.68.73-.24 1.94.22 2.65.34 1.54.28 3.07.58 4.6.87.26.05.38.3.4.51.13 1.27.57 2.92.38 4.18M107.87 262c-.02.48-.64.53-.8.11-.36-.91-.23-.5-.23-1.49 0-1.53.48-1.04-.5-2.15-1.08-1.2-3.09-1.15-4.6-1.66a20.77 20.77 0 01-6.18-3.4c-.77 1.94-.5 3.65 1.58 5.15.8.58 1.86.98 2.76 1.4 2 .94 4.1 1.64 6.07 2.63.33.17.08.6-.24.55a23.72 23.72 0 01-10.46-4.59c-2.2-1.83-1.58-4.1-.53-6.47.19-.41.73-.36 1.02-.13a20.95 20.95 0 005.58 3.41c1.68.68 3.54.73 5.2 1.38 2.42.96 1.42 3.23 1.33 5.27M163.86 310.48c-2.46-.27-4.83-2-6.6-3.61-.61-.57.3-1.47.91-.91.9.81 1.86 1.52 2.92 2.11.98.55 2.06.9 3.03 1.43.43.24.27 1.03-.26.98M167.04 309.21c-1.43.12-2.85-.87-3.89-1.73-.47-.4.16-1.21.66-.85.54.38 1.1.72 1.72.98.57.25 1.2.44 1.73.76.4.24.21.8-.22.84M169.7 306.58v-.64c1 0 1 .64 0 .64M136.64 290.43c.17.68.48 1.31.54 2.02.03.39-.45.62-.76.44-1.66-1.01-1.55-3.7-.96-5.29.28-.75 1.4-.46 1.21.34-.19.82-.22 1.67-.03 2.49M139.16 292.43c-.04.46-.66.71-.92.25-.53-.93-.56-2.23-.74-3.27-.11-.64.82-.93.99-.28.26 1.02.77 2.25.67 3.3"/><path d="M184.62 307.47c-2.3 1.6-4.98 2.37-7.55 3.43-.15.06-.23-.18-.1-.26 1.96-1.24 3.89-2.52 5.81-3.82.98-.67 1.86-1.45 2.67-2.3.86-.9 1.36-2.06 2.3-2.87.4-.34 1.11-.15 1.09.44-.11 2.4-2.41 4.1-4.22 5.38M192.74 282.83a59.79 59.79 0 01-3.54 7.65c-.47.9-1.76.11-1.33-.78a36.91 36.91 0 002.6-7.49c.46-1.89.4-4.07 1.9-5.45.3-.28.9-.28 1.1.15.93 1.95-.03 4-.73 5.92M186.3 294.28c-.69.38-1.6.46-2.36.59-.32.05-.47-.33-.21-.52.53-.4 1.03-.95 1.6-1.29.54-.33 1.18-.87 1.85-.64.2.07.4.27.38.5-.06.75-.67 1.03-1.27 1.36" fill="#fff"/></g></svg>